<svg xmlns="http://www.w3.org/2000/svg" version="1.1" xmlns:xlink="http://www.w3.org/1999/xlink" width="1500" height="356" viewBox="0 0 1500 356"><svg xml:space="preserve" width="1500" height="356" data-version="2" data-id="lg_PIRjrxcgkOjEpy4ZZN" viewBox="0 0 347 356" x="0" y="0"><rect width="100%" height="100%" fill="transparent"></rect><g transform="matrix(3.3982 0 0 3.481 173.5 178)"><linearGradient id="a" x1="0" x2="1" y1="0" y2="0" gradientUnits="objectBoundingBox"><stop offset="0%" stop-color="#dede50"></stop><stop offset="100%" stop-color="#559c49"></stop></linearGradient><path fill="url(#a)" d="M50 100.083C22.383 100.083-.084 77.615-.084 50-.084 22.383 22.383-.084 50-.084c27.616 0 50.083 22.468 50.083 50.084 0 27.615-22.468 50.083-50.083 50.083" transform="translate(-50 -50)"></path></g><g fill="#fff" stroke="#fff" paint-order="stroke"><path d="M56.71 66.979A20.976 20.976 0 0 1 50 68.073c-11.58 0-21-9.42-21-21 0-4.845 1.603-9.396 4.636-13.162a1.5 1.5 0 1 0-2.337-1.881A24.058 24.058 0 0 0 26 47.073c0 13.233 10.766 24 24 24 2.624 0 5.204-.421 7.668-1.251a1.5 1.5 0 0 0 .942-1.9 1.497 1.497 0 0 0-1.9-.943zM50 23.073a23.962 23.962 0 0 0-12.337 3.41 1.5 1.5 0 0 0 1.544 2.572A20.964 20.964 0 0 1 50 26.073c11.58 0 21 9.42 21 21 0 4.956-1.758 9.766-4.952 13.545a1.5 1.5 0 1 0 2.292 1.936A24.016 24.016 0 0 0 74 47.073c0-13.234-10.766-24-24-24z" transform="matrix(2.9286 0 0 2.8382 28.5 53.51)"></path><path d="M66.095 42.123a1.5 1.5 0 0 0-1.5-1.5h-8.159v-8.145a1.5 1.5 0 0 0-1.5-1.5H45.05a1.5 1.5 0 0 0-1.5 1.5v8.145h-8.145a1.5 1.5 0 0 0-1.5 1.5v9.885a1.5 1.5 0 0 0 1.5 1.5h8.145v8.159a1.5 1.5 0 0 0 1.5 1.5h9.885a1.5 1.5 0 0 0 1.5-1.5v-8.159h8.159a1.5 1.5 0 0 0 1.5-1.5v-9.885zm-3 8.385h-8.159a1.5 1.5 0 0 0-1.5 1.5v8.159H46.55v-8.159a1.5 1.5 0 0 0-1.5-1.5h-8.145v-6.885h8.145a1.5 1.5 0 0 0 1.5-1.5v-8.145h6.885v8.145a1.5 1.5 0 0 0 1.5 1.5h8.159v6.885zM87.07 17.67h.01z" transform="matrix(2.9286 0 0 2.8382 28.5 53.51)"></path><path d="M49.995 16.552a26.897 26.897 0 0 0-17.94-6.804c-7.226 0-14.02 2.814-19.13 7.925-10.463 10.462-10.539 27.538-.179 38.089.053.06.108.117.179.188l32.347 32.347a6.66 6.66 0 0 0 4.725 1.954c1.71 0 3.421-.651 4.724-1.953l32.5-32.492C92.237 50.719 95 43.973 95 36.812c0-7.24-2.815-14.037-7.925-19.139C76.94 7.537 60.599 7.15 49.995 16.552zm35.096 37.14L52.599 86.176a3.687 3.687 0 0 1-5.206 0L14.998 53.78a1.14 1.14 0 0 0-.081-.089c-9.241-9.378-9.183-24.584.129-33.897 4.544-4.543 10.584-7.046 17.009-7.046 6.354 0 12.352 2.459 16.888 6.925a1.5 1.5 0 0 0 2.105-.001c9.378-9.249 24.588-9.194 33.905.122l.001.001C89.498 24.33 92 30.374 92 36.812c0 6.368-2.456 12.365-6.909 16.88z" transform="matrix(2.9286 0 0 2.8382 28.5 53.51)"></path></g></svg></svg>