<svg xmlns="http://www.w3.org/2000/svg" version="1.1" xmlns:xlink="http://www.w3.org/1999/xlink" width="1500" height="666" viewBox="0 0 1500 666"><svg xml:space="preserve" width="1500" height="666" data-version="2" data-id="lg_PIRjrxcgkOjEpy4ZZN" viewBox="0 0 694 666" x="0" y="0"><rect width="100%" height="100%" fill="transparent"></rect><path fill="#40b080" d="M393.303 465.051a156.735 168.083 0 0 1-50.138 8.767c-86.527 0-156.914-75.484-156.914-168.275 0-38.824 11.978-75.291 34.64-105.469a11.208 12.02 0 1 0-17.462-15.072 179.764 192.78 0 0 0-39.594 120.54c0 106.038 80.444 192.315 179.33 192.315 19.607 0 38.885-3.373 57.296-10.024a11.208 12.02 0 0 0 7.039-15.225 11.186 11.996 0 0 0-14.197-7.557m-50.138-351.823a179.046 192.01 0 0 0-92.183 27.325 11.208 12.02 0 0 0 11.537 20.61 156.645 167.987 0 0 1 80.646-23.895c86.527 0 156.914 75.483 156.914 168.275 0 39.713-13.136 78.256-37.002 108.537a11.209 12.02 0 1 0 17.126 15.513 179.45 192.443 0 0 0 42.292-124.05c0-106.046-80.444-192.315-179.33-192.315"></path><path fill="#40b080" d="M463.428 265.878a11.208 12.02 0 0 0-11.208-12.02h-60.965v-65.267a11.208 12.02 0 0 0-11.208-12.02h-73.869a11.208 12.02 0 0 0-11.208 12.02v65.267h-60.86a11.208 12.02 0 0 0-11.208 12.02v79.21a11.208 12.02 0 0 0 11.208 12.019h60.86v65.379a11.208 12.02 0 0 0 11.208 12.02h73.862a11.208 12.02 0 0 0 11.208-12.02v-65.379h60.965a11.208 12.02 0 0 0 11.208-12.02v-79.21zm-22.416 67.19h-60.965a11.208 12.02 0 0 0-11.208 12.02v65.378h-51.453v-65.379a11.208 12.02 0 0 0-11.208-12.02h-60.86v-55.17h60.86a11.208 12.02 0 0 0 11.208-12.02v-65.266h51.446v65.267a11.208 12.02 0 0 0 11.208 12.02h60.965v55.17zM620.156 69.933h.074z"></path><path fill="#40b080" d="M343.128 60.975a200.977 215.528 0 0 0-134.05-54.521c-53.993 0-104.759 22.549-142.941 63.504-78.18 83.833-78.749 220.664-1.338 305.21.396.481.807.938 1.338 1.507l241.7 259.2a49.764 53.367 0 0 0 35.306 15.657c12.777 0 25.562-5.216 35.298-15.65l242.843-260.36c37.48-40.764 58.125-94.82 58.125-152.202 0-58.015-21.033-112.48-59.216-153.362-75.73-81.221-197.831-84.322-277.065-8.983m262.24 297.606L362.585 618.88a27.55 29.544 0 0 1-38.9 0L81.627 359.287a8.518 9.135 0 0 0-.606-.714c-69.05-75.146-68.616-196.994.964-271.62 33.953-36.403 79.085-56.46 127.093-56.46 47.478 0 92.296 19.704 126.189 55.49a11.208 12.02 0 0 0 15.729-.007c70.073-74.113 183.724-73.673 253.341.977l.008.008c33.953 36.34 52.648 84.77 52.648 136.36 0 51.027-18.351 99.081-51.625 135.26"></path></svg></svg>